<svg width="604" height="664" viewBox="0 0 604 664" fill="none" xmlns="http://www.w3.org/2000/svg">
<g clip-path="url(#clip0_4015_208)">
<mask id="path-2-inside-1_4015_208" fill="white">
<path fill-rule="evenodd" clip-rule="evenodd" d="M452 56.2434C452 53.7559 449.488 52.0001 447 52.0001C438.716 52.0001 432 45.2844 432 37.0001C432 34.5126 430.244 32.0001 427.757 32.0001H176.243C173.756 32.0001 172 34.5126 172 37.0001C172 45.2844 165.284 52.0001 157 52.0001C154.512 52.0001 152 53.7559 152 56.2435V500.757C152 503.244 154.512 505 157 505C165.284 505 172 511.716 172 520C172 528.284 165.284 535 157 535C154.512 535 152 536.756 152 539.243V607.757C152 610.244 154.512 612 157 612C165.284 612 172 618.716 172 627C172 629.488 173.756 632 176.243 632H427.757C430.244 632 432 629.488 432 627C432 618.716 438.716 612 447 612C449.488 612 452 610.244 452 607.757V539.243C452 536.756 449.488 535 447 535C438.716 535 432 528.284 432 520C432 511.716 438.716 505 447 505C449.488 505 452 503.244 452 500.757V56.2434ZM432 519C432 519.552 431.552 520 431 520H425C424.448 520 424 519.552 424 519C424 518.448 424.448 518 425 518H431C431.552 518 432 518.448 432 519ZM419 520C419.552 520 420 519.552 420 519C420 518.448 419.552 518 419 518H413C412.448 518 412 518.448 412 519C412 519.552 412.448 520 413 520H419ZM408 519C408 519.552 407.552 520 407 520H401C400.448 520 400 519.552 400 519C400 518.448 400.448 518 401 518H407C407.552 518 408 518.448 408 519ZM395 520C395.552 520 396 519.552 396 519C396 518.448 395.552 518 395 518H389C388.448 518 388 518.448 388 519C388 519.552 388.448 520 389 520H395ZM384 519C384 519.552 383.552 520 383 520H377C376.448 520 376 519.552 376 519C376 518.448 376.448 518 377 518H383C383.552 518 384 518.448 384 519ZM371 520C371.552 520 372 519.552 372 519C372 518.448 371.552 518 371 518H365C364.448 518 364 518.448 364 519C364 519.552 364.448 520 365 520H371ZM360 519C360 519.552 359.552 520 359 520H353C352.448 520 352 519.552 352 519C352 518.448 352.448 518 353 518H359C359.552 518 360 518.448 360 519ZM347 520C347.552 520 348 519.552 348 519C348 518.448 347.552 518 347 518H341C340.448 518 340 518.448 340 519C340 519.552 340.448 520 341 520H347ZM336 519C336 519.552 335.552 520 335 520H329C328.448 520 328 519.552 328 519C328 518.448 328.448 518 329 518H335C335.552 518 336 518.448 336 519ZM323 520C323.552 520 324 519.552 324 519C324 518.448 323.552 518 323 518H317C316.448 518 316 518.448 316 519C316 519.552 316.448 520 317 520H323ZM312 519C312 519.552 311.552 520 311 520H305C304.448 520 304 519.552 304 519C304 518.448 304.448 518 305 518H311C311.552 518 312 518.448 312 519ZM299 520C299.552 520 300 519.552 300 519C300 518.448 299.552 518 299 518H293C292.448 518 292 518.448 292 519C292 519.552 292.448 520 293 520H299ZM288 519C288 519.552 287.552 520 287 520H281C280.448 520 280 519.552 280 519C280 518.448 280.448 518 281 518H287C287.552 518 288 518.448 288 519ZM275 520C275.552 520 276 519.552 276 519C276 518.448 275.552 518 275 518H269C268.448 518 268 518.448 268 519C268 519.552 268.448 520 269 520H275ZM264 519C264 519.552 263.552 520 263 520H257C256.448 520 256 519.552 256 519C256 518.448 256.448 518 257 518H263C263.552 518 264 518.448 264 519ZM251 520C251.552 520 252 519.552 252 519C252 518.448 251.552 518 251 518H245C244.448 518 244 518.448 244 519C244 519.552 244.448 520 245 520H251ZM240 519C240 519.552 239.552 520 239 520H233C232.448 520 232 519.552 232 519C232 518.448 232.448 518 233 518H239C239.552 518 240 518.448 240 519ZM227 520C227.552 520 228 519.552 228 519C228 518.448 227.552 518 227 518H221C220.448 518 220 518.448 220 519C220 519.552 220.448 520 221 520H227ZM216 519C216 519.552 215.552 520 215 520H209C208.448 520 208 519.552 208 519C208 518.448 208.448 518 209 518H215C215.552 518 216 518.448 216 519ZM203 520C203.552 520 204 519.552 204 519C204 518.448 203.552 518 203 518H197C196.448 518 196 518.448 196 519C196 519.552 196.448 520 197 520H203ZM192 519C192 519.552 191.552 520 191 520H185C184.448 520 184 519.552 184 519C184 518.448 184.448 518 185 518H191C191.552 518 192 518.448 192 519ZM179 520C179.552 520 180 519.552 180 519C180 518.448 179.552 518 179 518H173C172.448 518 172 518.448 172 519C172 519.552 172.448 520 173 520H179Z"/>
</mask>
<path fill-rule="evenodd" clip-rule="evenodd" d="M452 56.2434C452 53.7559 449.488 52.0001 447 52.0001C438.716 52.0001 432 45.2844 432 37.0001C432 34.5126 430.244 32.0001 427.757 32.0001H176.243C173.756 32.0001 172 34.5126 172 37.0001C172 45.2844 165.284 52.0001 157 52.0001C154.512 52.0001 152 53.7559 152 56.2435V500.757C152 503.244 154.512 505 157 505C165.284 505 172 511.716 172 520C172 528.284 165.284 535 157 535C154.512 535 152 536.756 152 539.243V607.757C152 610.244 154.512 612 157 612C165.284 612 172 618.716 172 627C172 629.488 173.756 632 176.243 632H427.757C430.244 632 432 629.488 432 627C432 618.716 438.716 612 447 612C449.488 612 452 610.244 452 607.757V539.243C452 536.756 449.488 535 447 535C438.716 535 432 528.284 432 520C432 511.716 438.716 505 447 505C449.488 505 452 503.244 452 500.757V56.2434ZM432 519C432 519.552 431.552 520 431 520H425C424.448 520 424 519.552 424 519C424 518.448 424.448 518 425 518H431C431.552 518 432 518.448 432 519ZM419 520C419.552 520 420 519.552 420 519C420 518.448 419.552 518 419 518H413C412.448 518 412 518.448 412 519C412 519.552 412.448 520 413 520H419ZM408 519C408 519.552 407.552 520 407 520H401C400.448 520 400 519.552 400 519C400 518.448 400.448 518 401 518H407C407.552 518 408 518.448 408 519ZM395 520C395.552 520 396 519.552 396 519C396 518.448 395.552 518 395 518H389C388.448 518 388 518.448 388 519C388 519.552 388.448 520 389 520H395ZM384 519C384 519.552 383.552 520 383 520H377C376.448 520 376 519.552 376 519C376 518.448 376.448 518 377 518H383C383.552 518 384 518.448 384 519ZM371 520C371.552 520 372 519.552 372 519C372 518.448 371.552 518 371 518H365C364.448 518 364 518.448 364 519C364 519.552 364.448 520 365 520H371ZM360 519C360 519.552 359.552 520 359 520H353C352.448 520 352 519.552 352 519C352 518.448 352.448 518 353 518H359C359.552 518 360 518.448 360 519ZM347 520C347.552 520 348 519.552 348 519C348 518.448 347.552 518 347 518H341C340.448 518 340 518.448 340 519C340 519.552 340.448 520 341 520H347ZM336 519C336 519.552 335.552 520 335 520H329C328.448 520 328 519.552 328 519C328 518.448 328.448 518 329 518H335C335.552 518 336 518.448 336 519ZM323 520C323.552 520 324 519.552 324 519C324 518.448 323.552 518 323 518H317C316.448 518 316 518.448 316 519C316 519.552 316.448 520 317 520H323ZM312 519C312 519.552 311.552 520 311 520H305C304.448 520 304 519.552 304 519C304 518.448 304.448 518 305 518H311C311.552 518 312 518.448 312 519ZM299 520C299.552 520 300 519.552 300 519C300 518.448 299.552 518 299 518H293C292.448 518 292 518.448 292 519C292 519.552 292.448 520 293 520H299ZM288 519C288 519.552 287.552 520 287 520H281C280.448 520 280 519.552 280 519C280 518.448 280.448 518 281 518H287C287.552 518 288 518.448 288 519ZM275 520C275.552 520 276 519.552 276 519C276 518.448 275.552 518 275 518H269C268.448 518 268 518.448 268 519C268 519.552 268.448 520 269 520H275ZM264 519C264 519.552 263.552 520 263 520H257C256.448 520 256 519.552 256 519C256 518.448 256.448 518 257 518H263C263.552 518 264 518.448 264 519ZM251 520C251.552 520 252 519.552 252 519C252 518.448 251.552 518 251 518H245C244.448 518 244 518.448 244 519C244 519.552 244.448 520 245 520H251ZM240 519C240 519.552 239.552 520 239 520H233C232.448 520 232 519.552 232 519C232 518.448 232.448 518 233 518H239C239.552 518 240 518.448 240 519ZM227 520C227.552 520 228 519.552 228 519C228 518.448 227.552 518 227 518H221C220.448 518 220 518.448 220 519C220 519.552 220.448 520 221 520H227ZM216 519C216 519.552 215.552 520 215 520H209C208.448 520 208 519.552 208 519C208 518.448 208.448 518 209 518H215C215.552 518 216 518.448 216 519ZM203 520C203.552 520 204 519.552 204 519C204 518.448 203.552 518 203 518H197C196.448 518 196 518.448 196 519C196 519.552 196.448 520 197 520H203ZM192 519C192 519.552 191.552 520 191 520H185C184.448 520 184 519.552 184 519C184 518.448 184.448 518 185 518H191C191.552 518 192 518.448 192 519ZM179 520C179.552 520 180 519.552 180 519C180 518.448 179.552 518 179 518H173C172.448 518 172 518.448 172 519C172 519.552 172.448 520 173 520H179Z" fill="#072C31"/>
<path fill-rule="evenodd" clip-rule="evenodd" d="M452 56.2434C452 53.7559 449.488 52.0001 447 52.0001C438.716 52.0001 432 45.2844 432 37.0001C432 34.5126 430.244 32.0001 427.757 32.0001H176.243C173.756 32.0001 172 34.5126 172 37.0001C172 45.2844 165.284 52.0001 157 52.0001C154.512 52.0001 152 53.7559 152 56.2435V500.757C152 503.244 154.512 505 157 505C165.284 505 172 511.716 172 520C172 528.284 165.284 535 157 535C154.512 535 152 536.756 152 539.243V607.757C152 610.244 154.512 612 157 612C165.284 612 172 618.716 172 627C172 629.488 173.756 632 176.243 632H427.757C430.244 632 432 629.488 432 627C432 618.716 438.716 612 447 612C449.488 612 452 610.244 452 607.757V539.243C452 536.756 449.488 535 447 535C438.716 535 432 528.284 432 520C432 511.716 438.716 505 447 505C449.488 505 452 503.244 452 500.757V56.2434ZM432 519C432 519.552 431.552 520 431 520H425C424.448 520 424 519.552 424 519C424 518.448 424.448 518 425 518H431C431.552 518 432 518.448 432 519ZM419 520C419.552 520 420 519.552 420 519C420 518.448 419.552 518 419 518H413C412.448 518 412 518.448 412 519C412 519.552 412.448 520 413 520H419ZM408 519C408 519.552 407.552 520 407 520H401C400.448 520 400 519.552 400 519C400 518.448 400.448 518 401 518H407C407.552 518 408 518.448 408 519ZM395 520C395.552 520 396 519.552 396 519C396 518.448 395.552 518 395 518H389C388.448 518 388 518.448 388 519C388 519.552 388.448 520 389 520H395ZM384 519C384 519.552 383.552 520 383 520H377C376.448 520 376 519.552 376 519C376 518.448 376.448 518 377 518H383C383.552 518 384 518.448 384 519ZM371 520C371.552 520 372 519.552 372 519C372 518.448 371.552 518 371 518H365C364.448 518 364 518.448 364 519C364 519.552 364.448 520 365 520H371ZM360 519C360 519.552 359.552 520 359 520H353C352.448 520 352 519.552 352 519C352 518.448 352.448 518 353 518H359C359.552 518 360 518.448 360 519ZM347 520C347.552 520 348 519.552 348 519C348 518.448 347.552 518 347 518H341C340.448 518 340 518.448 340 519C340 519.552 340.448 520 341 520H347ZM336 519C336 519.552 335.552 520 335 520H329C328.448 520 328 519.552 328 519C328 518.448 328.448 518 329 518H335C335.552 518 336 518.448 336 519ZM323 520C323.552 520 324 519.552 324 519C324 518.448 323.552 518 323 518H317C316.448 518 316 518.448 316 519C316 519.552 316.448 520 317 520H323ZM312 519C312 519.552 311.552 520 311 520H305C304.448 520 304 519.552 304 519C304 518.448 304.448 518 305 518H311C311.552 518 312 518.448 312 519ZM299 520C299.552 520 300 519.552 300 519C300 518.448 299.552 518 299 518H293C292.448 518 292 518.448 292 519C292 519.552 292.448 520 293 520H299ZM288 519C288 519.552 287.552 520 287 520H281C280.448 520 280 519.552 280 519C280 518.448 280.448 518 281 518H287C287.552 518 288 518.448 288 519ZM275 520C275.552 520 276 519.552 276 519C276 518.448 275.552 518 275 518H269C268.448 518 268 518.448 268 519C268 519.552 268.448 520 269 520H275ZM264 519C264 519.552 263.552 520 263 520H257C256.448 520 256 519.552 256 519C256 518.448 256.448 518 257 518H263C263.552 518 264 518.448 264 519ZM251 520C251.552 520 252 519.552 252 519C252 518.448 251.552 518 251 518H245C244.448 518 244 518.448 244 519C244 519.552 244.448 520 245 520H251ZM240 519C240 519.552 239.552 520 239 520H233C232.448 520 232 519.552 232 519C232 518.448 232.448 518 233 518H239C239.552 518 240 518.448 240 519ZM227 520C227.552 520 228 519.552 228 519C228 518.448 227.552 518 227 518H221C220.448 518 220 518.448 220 519C220 519.552 220.448 520 221 520H227ZM216 519C216 519.552 215.552 520 215 520H209C208.448 520 208 519.552 208 519C208 518.448 208.448 518 209 518H215C215.552 518 216 518.448 216 519ZM203 520C203.552 520 204 519.552 204 519C204 518.448 203.552 518 203 518H197C196.448 518 196 518.448 196 519C196 519.552 196.448 520 197 520H203ZM192 519C192 519.552 191.552 520 191 520H185C184.448 520 184 519.552 184 519C184 518.448 184.448 518 185 518H191C191.552 518 192 518.448 192 519ZM179 520C179.552 520 180 519.552 180 519C180 518.448 179.552 518 179 518H173C172.448 518 172 518.448 172 519C172 519.552 172.448 520 173 520H179Z" fill="url(#paint0_radial_4015_208)"/>
<path fill-rule="evenodd" clip-rule="evenodd" d="M452 56.2434C452 53.7559 449.488 52.0001 447 52.0001C438.716 52.0001 432 45.2844 432 37.0001C432 34.5126 430.244 32.0001 427.757 32.0001H176.243C173.756 32.0001 172 34.5126 172 37.0001C172 45.2844 165.284 52.0001 157 52.0001C154.512 52.0001 152 53.7559 152 56.2435V500.757C152 503.244 154.512 505 157 505C165.284 505 172 511.716 172 520C172 528.284 165.284 535 157 535C154.512 535 152 536.756 152 539.243V607.757C152 610.244 154.512 612 157 612C165.284 612 172 618.716 172 627C172 629.488 173.756 632 176.243 632H427.757C430.244 632 432 629.488 432 627C432 618.716 438.716 612 447 612C449.488 612 452 610.244 452 607.757V539.243C452 536.756 449.488 535 447 535C438.716 535 432 528.284 432 520C432 511.716 438.716 505 447 505C449.488 505 452 503.244 452 500.757V56.2434ZM432 519C432 519.552 431.552 520 431 520H425C424.448 520 424 519.552 424 519C424 518.448 424.448 518 425 518H431C431.552 518 432 518.448 432 519ZM419 520C419.552 520 420 519.552 420 519C420 518.448 419.552 518 419 518H413C412.448 518 412 518.448 412 519C412 519.552 412.448 520 413 520H419ZM408 519C408 519.552 407.552 520 407 520H401C400.448 520 400 519.552 400 519C400 518.448 400.448 518 401 518H407C407.552 518 408 518.448 408 519ZM395 520C395.552 520 396 519.552 396 519C396 518.448 395.552 518 395 518H389C388.448 518 388 518.448 388 519C388 519.552 388.448 520 389 520H395ZM384 519C384 519.552 383.552 520 383 520H377C376.448 520 376 519.552 376 519C376 518.448 376.448 518 377 518H383C383.552 518 384 518.448 384 519ZM371 520C371.552 520 372 519.552 372 519C372 518.448 371.552 518 371 518H365C364.448 518 364 518.448 364 519C364 519.552 364.448 520 365 520H371ZM360 519C360 519.552 359.552 520 359 520H353C352.448 520 352 519.552 352 519C352 518.448 352.448 518 353 518H359C359.552 518 360 518.448 360 519ZM347 520C347.552 520 348 519.552 348 519C348 518.448 347.552 518 347 518H341C340.448 518 340 518.448 340 519C340 519.552 340.448 520 341 520H347ZM336 519C336 519.552 335.552 520 335 520H329C328.448 520 328 519.552 328 519C328 518.448 328.448 518 329 518H335C335.552 518 336 518.448 336 519ZM323 520C323.552 520 324 519.552 324 519C324 518.448 323.552 518 323 518H317C316.448 518 316 518.448 316 519C316 519.552 316.448 520 317 520H323ZM312 519C312 519.552 311.552 520 311 520H305C304.448 520 304 519.552 304 519C304 518.448 304.448 518 305 518H311C311.552 518 312 518.448 312 519ZM299 520C299.552 520 300 519.552 300 519C300 518.448 299.552 518 299 518H293C292.448 518 292 518.448 292 519C292 519.552 292.448 520 293 520H299ZM288 519C288 519.552 287.552 520 287 520H281C280.448 520 280 519.552 280 519C280 518.448 280.448 518 281 518H287C287.552 518 288 518.448 288 519ZM275 520C275.552 520 276 519.552 276 519C276 518.448 275.552 518 275 518H269C268.448 518 268 518.448 268 519C268 519.552 268.448 520 269 520H275ZM264 519C264 519.552 263.552 520 263 520H257C256.448 520 256 519.552 256 519C256 518.448 256.448 518 257 518H263C263.552 518 264 518.448 264 519ZM251 520C251.552 520 252 519.552 252 519C252 518.448 251.552 518 251 518H245C244.448 518 244 518.448 244 519C244 519.552 244.448 520 245 520H251ZM240 519C240 519.552 239.552 520 239 520H233C232.448 520 232 519.552 232 519C232 518.448 232.448 518 233 518H239C239.552 518 240 518.448 240 519ZM227 520C227.552 520 228 519.552 228 519C228 518.448 227.552 518 227 518H221C220.448 518 220 518.448 220 519C220 519.552 220.448 520 221 520H227ZM216 519C216 519.552 215.552 520 215 520H209C208.448 520 208 519.552 208 519C208 518.448 208.448 518 209 518H215C215.552 518 216 518.448 216 519ZM203 520C203.552 520 204 519.552 204 519C204 518.448 203.552 518 203 518H197C196.448 518 196 518.448 196 519C196 519.552 196.448 520 197 520H203ZM192 519C192 519.552 191.552 520 191 520H185C184.448 520 184 519.552 184 519C184 518.448 184.448 518 185 518H191C191.552 518 192 518.448 192 519ZM179 520C179.552 520 180 519.552 180 519C180 518.448 179.552 518 179 518H173C172.448 518 172 518.448 172 519C172 519.552 172.448 520 173 520H179Z" fill="url(#paint1_radial_4015_208)"/>
<path d="M431 37.0001C431 45.8367 438.163 53.0001 447 53.0001V51.0001C439.268 51.0001 433 44.7321 433 37.0001H431ZM176.243 33.0001H427.757V31.0001H176.243V33.0001ZM157 53.0001C165.837 53.0001 173 45.8367 173 37.0001H171C171 44.7321 164.732 51.0001 157 51.0001V53.0001ZM153 500.757V56.2435H151V500.757H153ZM173 520C173 511.164 165.837 504 157 504V506C164.732 506 171 512.268 171 520H173ZM157 536C165.837 536 173 528.837 173 520H171C171 527.732 164.732 534 157 534V536ZM153 607.757V539.243H151V607.757H153ZM173 627C173 618.164 165.837 611 157 611V613C164.732 613 171 619.268 171 627H173ZM427.757 631H176.243V633H427.757V631ZM433 627C433 619.268 439.268 613 447 613V611C438.163 611 431 618.164 431 627H433ZM451 539.243V607.757H453V539.243H451ZM431 520C431 528.837 438.163 536 447 536V534C439.268 534 433 527.732 433 520H431ZM447 504C438.163 504 431 511.164 431 520H433C433 512.268 439.268 506 447 506V504ZM451 56.2434V500.757H453V56.2434H451ZM431 521C432.105 521 433 520.105 433 519H431V521ZM425 521H431V519H425V521ZM423 519C423 520.105 423.895 521 425 521V519H423ZM425 517C423.895 517 423 517.896 423 519H425V517ZM431 517H425V519H431V517ZM433 519C433 517.896 432.105 517 431 517V519H433ZM419 519V521C420.105 521 421 520.105 421 519H419ZM419 519H421C421 517.896 420.105 517 419 517V519ZM413 519H419V517H413V519ZM413 519V517C411.895 517 411 517.896 411 519H413ZM413 519H411C411 520.105 411.895 521 413 521V519ZM419 519H413V521H419V519ZM407 521C408.105 521 409 520.105 409 519H407V521ZM401 521H407V519H401V521ZM399 519C399 520.105 399.895 521 401 521V519H399ZM401 517C399.895 517 399 517.896 399 519H401V517ZM407 517H401V519H407V517ZM409 519C409 517.896 408.105 517 407 517V519H409ZM395 519V521C396.105 521 397 520.105 397 519H395ZM395 519H397C397 517.896 396.105 517 395 517V519ZM389 519H395V517H389V519ZM389 519V517C387.895 517 387 517.896 387 519H389ZM389 519H387C387 520.105 387.895 521 389 521V519ZM395 519H389V521H395V519ZM383 521C384.105 521 385 520.105 385 519H383V521ZM377 521H383V519H377V521ZM375 519C375 520.105 375.895 521 377 521V519H375ZM377 517C375.895 517 375 517.896 375 519H377V517ZM383 517H377V519H383V517ZM385 519C385 517.896 384.105 517 383 517V519H385ZM371 519V521C372.105 521 373 520.105 373 519H371ZM371 519H373C373 517.896 372.105 517 371 517V519ZM365 519H371V517H365V519ZM365 519V517C363.895 517 363 517.896 363 519H365ZM365 519H363C363 520.105 363.895 521 365 521V519ZM371 519H365V521H371V519ZM359 521C360.105 521 361 520.105 361 519H359V521ZM353 521H359V519H353V521ZM351 519C351 520.105 351.895 521 353 521V519H351ZM353 517C351.895 517 351 517.896 351 519H353V517ZM359 517H353V519H359V517ZM361 519C361 517.896 360.105 517 359 517V519H361ZM347 519V521C348.105 521 349 520.105 349 519H347ZM347 519H349C349 517.896 348.105 517 347 517V519ZM341 519H347V517H341V519ZM341 519V517C339.895 517 339 517.896 339 519H341ZM341 519H339C339 520.105 339.895 521 341 521V519ZM347 519H341V521H347V519ZM335 521C336.105 521 337 520.105 337 519H335V521ZM329 521H335V519H329V521ZM327 519C327 520.105 327.895 521 329 521V519H327ZM329 517C327.895 517 327 517.896 327 519H329V517ZM335 517H329V519H335V517ZM337 519C337 517.896 336.105 517 335 517V519H337ZM323 519V521C324.105 521 325 520.105 325 519H323ZM323 519H325C325 517.896 324.105 517 323 517V519ZM317 519H323V517H317V519ZM317 519V517C315.895 517 315 517.896 315 519H317ZM317 519H315C315 520.105 315.895 521 317 521V519ZM323 519H317V521H323V519ZM311 521C312.105 521 313 520.105 313 519H311V521ZM305 521H311V519H305V521ZM303 519C303 520.105 303.895 521 305 521V519H303ZM305 517C303.895 517 303 517.896 303 519H305V517ZM311 517H305V519H311V517ZM313 519C313 517.896 312.105 517 311 517V519H313ZM299 519V521C300.105 521 301 520.105 301 519H299ZM299 519H301C301 517.896 300.105 517 299 517V519ZM293 519H299V517H293V519ZM293 519V517C291.895 517 291 517.896 291 519H293ZM293 519H291C291 520.105 291.895 521 293 521V519ZM299 519H293V521H299V519ZM287 521C288.105 521 289 520.105 289 519H287V521ZM281 521H287V519H281V521ZM279 519C279 520.105 279.895 521 281 521V519H279ZM281 517C279.895 517 279 517.896 279 519H281V517ZM287 517H281V519H287V517ZM289 519C289 517.896 288.105 517 287 517V519H289ZM275 519V521C276.105 521 277 520.105 277 519H275ZM275 519H277C277 517.896 276.105 517 275 517V519ZM269 519H275V517H269V519ZM269 519V517C267.895 517 267 517.896 267 519H269ZM269 519H267C267 520.105 267.895 521 269 521V519ZM275 519H269V521H275V519ZM263 521C264.105 521 265 520.105 265 519H263V521ZM257 521H263V519H257V521ZM255 519C255 520.105 255.895 521 257 521V519H255ZM257 517C255.895 517 255 517.896 255 519H257V517ZM263 517H257V519H263V517ZM265 519C265 517.896 264.105 517 263 517V519H265ZM251 519V521C252.105 521 253 520.105 253 519H251ZM251 519H253C253 517.896 252.105 517 251 517V519ZM245 519H251V517H245V519ZM245 519V517C243.895 517 243 517.896 243 519H245ZM245 519H243C243 520.105 243.895 521 245 521V519ZM251 519H245V521H251V519ZM239 521C240.105 521 241 520.105 241 519H239V521ZM233 521H239V519H233V521ZM231 519C231 520.105 231.895 521 233 521V519H231ZM233 517C231.895 517 231 517.896 231 519H233V517ZM239 517H233V519H239V517ZM241 519C241 517.896 240.105 517 239 517V519H241ZM227 519V521C228.105 521 229 520.105 229 519H227ZM227 519H229C229 517.896 228.105 517 227 517V519ZM221 519H227V517H221V519ZM221 519V517C219.895 517 219 517.896 219 519H221ZM221 519H219C219 520.105 219.895 521 221 521V519ZM227 519H221V521H227V519ZM215 521C216.105 521 217 520.105 217 519H215V521ZM209 521H215V519H209V521ZM207 519C207 520.105 207.895 521 209 521V519H207ZM209 517C207.895 517 207 517.896 207 519H209V517ZM215 517H209V519H215V517ZM217 519C217 517.896 216.105 517 215 517V519H217ZM203 519V521C204.105 521 205 520.105 205 519H203ZM203 519H205C205 517.896 204.105 517 203 517V519ZM197 519H203V517H197V519ZM197 519V517C195.895 517 195 517.896 195 519H197ZM197 519H195C195 520.105 195.895 521 197 521V519ZM203 519H197V521H203V519ZM191 521C192.105 521 193 520.105 193 519H191V521ZM185 521H191V519H185V521ZM183 519C183 520.105 183.895 521 185 521V519H183ZM185 517C183.895 517 183 517.896 183 519H185V517ZM191 517H185V519H191V517ZM193 519C193 517.896 192.105 517 191 517V519H193ZM179 519V521C180.105 521 181 520.105 181 519H179ZM179 519H181C181 517.896 180.105 517 179 517V519ZM173 519H179V517H173V519ZM173 519V517C171.895 517 171 517.896 171 519H173ZM173 519H171C171 520.105 171.895 521 173 521V519ZM179 519H173V521H179V519ZM447 506C448.467 506 449.938 505.486 451.057 504.593C452.183 503.693 453 502.363 453 500.757H451C451 501.638 450.56 502.43 449.809 503.03C449.05 503.636 448.02 504 447 504V506ZM453 539.243C453 537.637 452.183 536.307 451.057 535.408C449.938 534.514 448.467 534 447 534V536C448.02 536 449.05 536.364 449.809 536.97C450.56 537.571 451 538.363 451 539.243H453ZM447 613C448.467 613 449.938 612.486 451.057 611.593C452.183 610.693 453 609.363 453 607.757H451C451 608.638 450.56 609.43 449.809 610.03C449.05 610.636 448.02 611 447 611V613ZM427.757 633C429.363 633 430.693 632.184 431.593 631.057C432.486 629.938 433 628.467 433 627H431C431 628.021 430.636 629.05 430.03 629.809C429.43 630.56 428.638 631 427.757 631V633ZM171 627C171 628.467 171.514 629.938 172.407 631.057C173.307 632.184 174.637 633 176.243 633V631C175.363 631 174.57 630.56 173.97 629.809C173.364 629.05 173 628.021 173 627H171ZM151 607.757C151 609.364 151.817 610.693 152.943 611.593C154.062 612.486 155.533 613 157 613V611C155.98 611 154.95 610.636 154.191 610.03C153.44 609.43 153 608.638 153 607.757H151ZM157 51.0001C155.533 51.0001 154.062 51.5141 152.943 52.4075C151.817 53.3072 151 54.6368 151 56.2435H153C153 55.3626 153.44 54.5706 154.191 53.9704C154.95 53.3641 155.98 53.0001 157 53.0001V51.0001ZM176.243 31.0001C174.637 31.0001 173.307 31.8167 172.407 32.9433C171.514 34.0622 171 35.533 171 37.0001H173C173 35.9797 173.364 34.9505 173.97 34.1913C174.57 33.4397 175.362 33.0001 176.243 33.0001V31.0001ZM151 500.757C151 502.363 151.817 503.693 152.943 504.593C154.062 505.486 155.533 506 157 506V504C155.98 504 154.95 503.636 154.191 503.03C153.44 502.43 153 501.638 153 500.757H151ZM433 37.0001C433 35.533 432.486 34.0622 431.593 32.9433C430.693 31.8167 429.363 31.0001 427.757 31.0001V33.0001C428.638 33.0001 429.43 33.4397 430.03 34.1913C430.636 34.9505 431 35.9797 431 37.0001H433ZM157 534C155.533 534 154.062 534.514 152.943 535.408C151.817 536.307 151 537.637 151 539.243H153C153 538.363 153.44 537.571 154.191 536.97C154.95 536.364 155.98 536 157 536V534ZM447 53.0001C448.02 53.0001 449.05 53.3641 449.809 53.9704C450.56 54.5705 451 55.3626 451 56.2434H453C453 54.6367 452.183 53.3071 451.057 52.4075C449.938 51.514 448.467 51.0001 447 51.0001V53.0001Z" fill="#24A0B5" mask="url(#path-2-inside-1_4015_208)"/>
<rect x="171.5" y="51.5001" width="261" height="447" rx="16.5" fill="#031E21" fill-opacity="0.1"/>
<rect x="171.5" y="51.5001" width="261" height="447" rx="16.5" stroke="#24A0B5"/>
</g>
<path d="M189.069 600.491V609.218H188.012V601.599H187.961L185.831 603.014V601.94L188.012 600.491H189.069Z" fill="white"/>
<path d="M213.637 542H211.442V598.241H213.637V542Z" fill="white"/>
<path d="M218.028 542H215.833V598.241H218.028V542Z" fill="white"/>
<path d="M186.195 542H184V598.241H186.195V542Z" fill="white"/>
<path d="M190.586 542H188.391V598.241H190.586V542Z" fill="white"/>
<path d="M201.563 542H192.781V593.128H201.563V542Z" fill="white"/>
<path d="M208.149 542H204.856V593H208.149V542Z" fill="white"/>
<path d="M224.614 542H222.419V593.128H224.614V542Z" fill="white"/>
<path d="M233.395 542H229.005V593.128H233.395V542Z" fill="white"/>
<path d="M248.763 542H246.567V593.128H248.763V542Z" fill="white"/>
<path d="M259.74 542H253.154V593.128H259.74V542Z" fill="white"/>
<path d="M264.13 542H261.935V593.128H264.13V542Z" fill="white"/>
<path d="M270.716 542H266.326V593.128H270.716V542Z" fill="white"/>
<path d="M279.498 542H277.302V593.128H279.498V542Z" fill="white"/>
<path d="M290.474 542H288.279V593.128H290.474V542Z" fill="white"/>
<path d="M294.865 542H292.67V593.128H294.865V542Z" fill="white"/>
<path d="M301.451 542H299.256V593.128H301.451V542Z" fill="white"/>
<path d="M310.233 542H308.037V593.128H310.233V542Z" fill="white"/>
<path d="M242.909 609.218V608.451L245.789 605.298C246.127 604.928 246.406 604.607 246.625 604.335C246.843 604.059 247.005 603.801 247.11 603.559C247.218 603.315 247.272 603.059 247.272 602.792C247.272 602.485 247.198 602.22 247.051 601.995C246.906 601.771 246.707 601.597 246.454 601.475C246.201 601.353 245.917 601.292 245.602 601.292C245.267 601.292 244.974 601.362 244.724 601.501C244.477 601.637 244.285 601.829 244.149 602.076C244.015 602.323 243.948 602.613 243.948 602.945H242.943C242.943 602.434 243.061 601.985 243.296 601.599C243.532 601.212 243.853 600.911 244.259 600.695C244.669 600.48 245.127 600.372 245.636 600.372C246.147 600.372 246.6 600.48 246.995 600.695C247.39 600.911 247.7 601.203 247.924 601.569C248.149 601.935 248.261 602.343 248.261 602.792C248.261 603.113 248.203 603.427 248.086 603.734C247.973 604.038 247.774 604.377 247.49 604.752C247.208 605.124 246.818 605.579 246.318 606.116L244.358 608.212V608.281H248.414V609.218H242.909ZM253.123 609.337C252.561 609.337 252.059 609.241 251.619 609.048C251.181 608.855 250.833 608.586 250.575 608.242C250.319 607.896 250.18 607.494 250.157 607.036H251.231C251.254 607.318 251.35 607.56 251.521 607.765C251.691 607.967 251.914 608.123 252.19 608.234C252.465 608.345 252.771 608.4 253.106 608.4C253.481 608.4 253.813 608.335 254.103 608.204C254.393 608.073 254.62 607.891 254.785 607.658C254.95 607.426 255.032 607.156 255.032 606.849C255.032 606.528 254.953 606.245 254.794 606.001C254.634 605.754 254.402 605.56 254.095 605.421C253.788 605.282 253.413 605.212 252.97 605.212H252.271V604.275H252.97C253.316 604.275 253.62 604.212 253.882 604.087C254.146 603.962 254.352 603.786 254.5 603.559C254.65 603.332 254.725 603.065 254.725 602.758C254.725 602.462 254.66 602.205 254.529 601.987C254.399 601.768 254.214 601.597 253.975 601.475C253.74 601.353 253.461 601.292 253.14 601.292C252.839 601.292 252.555 601.347 252.288 601.458C252.024 601.566 251.808 601.724 251.64 601.931C251.473 602.136 251.382 602.383 251.367 602.673H250.345C250.362 602.215 250.5 601.815 250.758 601.471C251.017 601.124 251.355 600.855 251.772 600.661C252.193 600.468 252.654 600.372 253.157 600.372C253.697 600.372 254.16 600.481 254.546 600.7C254.933 600.916 255.23 601.201 255.437 601.556C255.644 601.911 255.748 602.295 255.748 602.707C255.748 603.198 255.619 603.617 255.36 603.964C255.105 604.31 254.757 604.551 254.316 604.684V604.752C254.867 604.843 255.298 605.078 255.608 605.455C255.917 605.83 256.072 606.295 256.072 606.849C256.072 607.323 255.943 607.749 255.684 608.127C255.429 608.502 255.079 608.798 254.636 609.014C254.193 609.23 253.688 609.337 253.123 609.337ZM257.61 607.428V606.559L261.446 600.491H262.076V601.837H261.65L258.752 606.423V606.491H263.917V607.428H257.61ZM261.718 609.218V607.164V606.759V600.491H262.724V609.218H261.718ZM268.241 609.337C267.741 609.337 267.291 609.238 266.891 609.039C266.49 608.84 266.169 608.568 265.927 608.221C265.686 607.874 265.554 607.48 265.531 607.036H266.554C266.594 607.431 266.773 607.758 267.091 608.016C267.412 608.272 267.795 608.4 268.241 608.4C268.599 608.4 268.918 608.316 269.196 608.149C269.477 607.981 269.697 607.751 269.856 607.458C270.018 607.163 270.099 606.829 270.099 606.457C270.099 606.076 270.016 605.737 269.848 605.438C269.683 605.137 269.456 604.9 269.166 604.727C268.876 604.553 268.545 604.465 268.173 604.462C267.906 604.46 267.632 604.501 267.351 604.586C267.07 604.668 266.838 604.775 266.656 604.906L265.668 604.786L266.196 600.491H270.73V601.428H267.082L266.775 604.002H266.827C267.006 603.86 267.23 603.742 267.5 603.649C267.77 603.555 268.051 603.508 268.344 603.508C268.878 603.508 269.354 603.636 269.771 603.891C270.192 604.144 270.521 604.491 270.76 604.931C271.001 605.372 271.122 605.874 271.122 606.44C271.122 606.997 270.997 607.494 270.747 607.931C270.5 608.366 270.159 608.71 269.724 608.962C269.29 609.212 268.795 609.337 268.241 609.337ZM275.713 609.337C275.355 609.332 274.997 609.264 274.639 609.133C274.281 609.002 273.954 608.782 273.659 608.472C273.363 608.16 273.126 607.738 272.947 607.207C272.768 606.673 272.679 606.002 272.679 605.195C272.679 604.423 272.751 603.738 272.896 603.141C273.041 602.542 273.251 602.038 273.527 601.629C273.802 601.217 274.134 600.904 274.524 600.691C274.916 600.478 275.358 600.372 275.849 600.372C276.338 600.372 276.772 600.47 277.153 600.666C277.536 600.859 277.849 601.129 278.09 601.475C278.332 601.822 278.488 602.221 278.559 602.673H277.519C277.423 602.281 277.235 601.955 276.957 601.697C276.679 601.438 276.309 601.309 275.849 601.309C275.173 601.309 274.64 601.603 274.251 602.191C273.865 602.779 273.67 603.605 273.667 604.667H273.735C273.894 604.426 274.083 604.22 274.302 604.049C274.524 603.876 274.768 603.742 275.035 603.649C275.302 603.555 275.585 603.508 275.883 603.508C276.383 603.508 276.84 603.633 277.255 603.883C277.67 604.13 278.002 604.472 278.252 604.91C278.502 605.345 278.627 605.843 278.627 606.406C278.627 606.945 278.507 607.44 278.265 607.889C278.024 608.335 277.684 608.69 277.247 608.954C276.812 609.215 276.301 609.343 275.713 609.337ZM275.713 608.4C276.071 608.4 276.392 608.31 276.676 608.131C276.963 607.953 277.188 607.712 277.353 607.411C277.521 607.11 277.605 606.775 277.605 606.406C277.605 606.045 277.524 605.717 277.362 605.421C277.203 605.123 276.983 604.886 276.701 604.71C276.423 604.533 276.105 604.445 275.747 604.445C275.477 604.445 275.225 604.499 274.992 604.607C274.759 604.712 274.555 604.857 274.379 605.042C274.206 605.227 274.069 605.438 273.97 605.677C273.87 605.913 273.821 606.161 273.821 606.423C273.821 606.769 273.902 607.093 274.063 607.394C274.228 607.695 274.453 607.938 274.737 608.123C275.024 608.308 275.349 608.4 275.713 608.4ZM280.576 609.218L284.479 601.497V601.428H279.979V600.491H285.57V601.48L281.684 609.218H280.576Z" fill="white"/>
<path d="M314.623 542H312.428V598.241H314.623V542Z" fill="white"/>
<path d="M319.014 542H316.819V598.241H319.014V542Z" fill="white"/>
<path d="M323.405 542H321.209V593.128H323.405V542Z" fill="white"/>
<path d="M329.991 542H327.795V593.128H329.991V542Z" fill="white"/>
<path d="M343.163 542H336.577V593.128H343.163V542Z" fill="white"/>
<path d="M347.554 542H345.358V593.128H347.554V542Z" fill="white"/>
<path d="M356.335 542H351.944V593.128H356.335V542Z" fill="white"/>
<path d="M365.116 542H360.726V593.128H365.116V542Z" fill="white"/>
<path d="M373.898 542H367.312V593.128H373.898V542Z" fill="white"/>
<path d="M380.484 542H378.288V593.128H380.484V542Z" fill="white"/>
<path d="M387.07 542H382.679V593.128H387.07V542Z" fill="white"/>
<path d="M393.656 542H389.265V593.128H393.656V542Z" fill="white"/>
<path d="M400.242 542H398.047V593.128H400.242V542Z" fill="white"/>
<path d="M404.633 542H402.437V593.128H404.633V542Z" fill="white"/>
<path d="M349.653 609.337C349.068 609.337 348.551 609.234 348.102 609.026C347.656 608.816 347.308 608.528 347.058 608.161C346.808 607.792 346.684 607.372 346.687 606.9C346.684 606.531 346.757 606.19 346.905 605.877C347.052 605.562 347.254 605.299 347.51 605.089C347.768 604.876 348.057 604.741 348.375 604.684V604.633C347.957 604.525 347.625 604.291 347.378 603.93C347.13 603.566 347.008 603.153 347.011 602.69C347.008 602.247 347.12 601.85 347.348 601.501C347.575 601.151 347.887 600.876 348.285 600.674C348.686 600.472 349.142 600.372 349.653 600.372C350.159 600.372 350.61 600.472 351.008 600.674C351.406 600.876 351.718 601.151 351.946 601.501C352.176 601.85 352.292 602.247 352.295 602.69C352.292 603.153 352.166 603.566 351.916 603.93C351.669 604.291 351.341 604.525 350.932 604.633V604.684C351.247 604.741 351.531 604.876 351.784 605.089C352.037 605.299 352.238 605.562 352.389 605.877C352.539 606.19 352.616 606.531 352.619 606.9C352.616 607.372 352.488 607.792 352.235 608.161C351.985 608.528 351.637 608.816 351.191 609.026C350.748 609.234 350.235 609.337 349.653 609.337ZM349.653 608.4C350.048 608.4 350.389 608.336 350.676 608.208C350.963 608.08 351.184 607.9 351.341 607.667C351.497 607.434 351.576 607.161 351.579 606.849C351.576 606.519 351.491 606.228 351.324 605.975C351.156 605.722 350.927 605.524 350.637 605.379C350.351 605.234 350.022 605.161 349.653 605.161C349.281 605.161 348.949 605.234 348.656 605.379C348.366 605.524 348.137 605.722 347.97 605.975C347.805 606.228 347.724 606.519 347.727 606.849C347.724 607.161 347.799 607.434 347.953 607.667C348.109 607.9 348.332 608.08 348.622 608.208C348.912 608.336 349.255 608.4 349.653 608.4ZM349.653 604.258C349.966 604.258 350.243 604.195 350.484 604.07C350.728 603.945 350.92 603.771 351.059 603.546C351.199 603.322 351.27 603.059 351.272 602.758C351.27 602.462 351.2 602.205 351.064 601.987C350.927 601.765 350.738 601.595 350.497 601.475C350.255 601.353 349.974 601.292 349.653 601.292C349.326 601.292 349.041 601.353 348.797 601.475C348.552 601.595 348.363 601.765 348.23 601.987C348.096 602.205 348.031 602.462 348.034 602.758C348.031 603.059 348.098 603.322 348.234 603.546C348.373 603.771 348.565 603.945 348.809 604.07C349.054 604.195 349.335 604.258 349.653 604.258ZM357.031 600.372C357.389 600.374 357.747 600.443 358.104 600.576C358.462 600.71 358.789 600.931 359.085 601.241C359.38 601.548 359.617 601.967 359.796 602.498C359.975 603.029 360.065 603.695 360.065 604.497C360.065 605.272 359.991 605.961 359.843 606.563C359.698 607.163 359.488 607.668 359.212 608.08C358.94 608.492 358.607 608.805 358.215 609.018C357.826 609.231 357.386 609.337 356.894 609.337C356.406 609.337 355.97 609.241 355.586 609.048C355.205 608.852 354.893 608.58 354.648 608.234C354.407 607.884 354.252 607.48 354.184 607.019H355.224C355.318 607.42 355.504 607.751 355.782 608.012C356.063 608.271 356.434 608.4 356.894 608.4C357.568 608.4 358.099 608.106 358.488 607.518C358.88 606.93 359.076 606.099 359.076 605.025H359.008C358.849 605.264 358.66 605.47 358.441 605.643C358.222 605.816 357.979 605.95 357.712 606.043C357.445 606.137 357.161 606.184 356.86 606.184C356.36 606.184 355.901 606.06 355.484 605.813C355.069 605.563 354.737 605.221 354.487 604.786C354.239 604.349 354.116 603.849 354.116 603.286C354.116 602.752 354.235 602.264 354.474 601.82C354.715 601.374 355.053 601.019 355.488 600.755C355.925 600.491 356.44 600.363 357.031 600.372ZM357.031 601.309C356.673 601.309 356.35 601.399 356.063 601.578C355.779 601.754 355.553 601.992 355.386 602.293C355.221 602.592 355.139 602.923 355.139 603.286C355.139 603.65 355.218 603.981 355.377 604.279C355.539 604.575 355.759 604.81 356.038 604.987C356.319 605.16 356.639 605.247 356.997 605.247C357.266 605.247 357.518 605.194 357.751 605.089C357.984 604.981 358.187 604.835 358.36 604.65C358.536 604.462 358.674 604.251 358.773 604.015C358.873 603.776 358.923 603.528 358.923 603.269C358.923 602.928 358.84 602.609 358.675 602.31C358.514 602.012 358.289 601.771 358.002 601.586C357.718 601.401 357.394 601.309 357.031 601.309ZM364.809 600.491V609.218H363.752V601.599H363.701L361.57 603.014V601.94L363.752 600.491H364.809ZM370.165 609.337C369.523 609.337 368.976 609.163 368.525 608.813C368.073 608.461 367.728 607.951 367.489 607.283C367.25 606.613 367.131 605.803 367.131 604.855C367.131 603.911 367.25 603.106 367.489 602.438C367.731 601.768 368.077 601.256 368.529 600.904C368.983 600.549 369.529 600.372 370.165 600.372C370.802 600.372 371.346 600.549 371.797 600.904C372.252 601.256 372.598 601.768 372.837 602.438C373.079 603.106 373.199 603.911 373.199 604.855C373.199 605.803 373.08 606.613 372.841 607.283C372.603 607.951 372.258 608.461 371.806 608.813C371.354 609.163 370.807 609.337 370.165 609.337ZM370.165 608.4C370.802 608.4 371.296 608.093 371.648 607.48C372 606.866 372.177 605.991 372.177 604.855C372.177 604.099 372.096 603.455 371.934 602.924C371.775 602.393 371.544 601.988 371.243 601.71C370.945 601.431 370.586 601.292 370.165 601.292C369.535 601.292 369.042 601.603 368.686 602.225C368.331 602.845 368.154 603.721 368.154 604.855C368.154 605.61 368.233 606.252 368.392 606.781C368.552 607.309 368.78 607.711 369.079 607.987C369.38 608.262 369.742 608.4 370.165 608.4ZM374.819 609.218V608.451L377.699 605.298C378.037 604.928 378.316 604.607 378.535 604.335C378.753 604.059 378.915 603.801 379.02 603.559C379.128 603.315 379.182 603.059 379.182 602.792C379.182 602.485 379.108 602.22 378.961 601.995C378.816 601.771 378.617 601.597 378.364 601.475C378.111 601.353 377.827 601.292 377.512 601.292C377.177 601.292 376.884 601.362 376.634 601.501C376.387 601.637 376.195 601.829 376.059 602.076C375.925 602.323 375.858 602.613 375.858 602.945H374.853C374.853 602.434 374.971 601.985 375.206 601.599C375.442 601.212 375.763 600.911 376.169 600.695C376.579 600.48 377.037 600.372 377.546 600.372C378.057 600.372 378.51 600.48 378.905 600.695C379.3 600.911 379.61 601.203 379.834 601.569C380.059 601.935 380.171 602.343 380.171 602.792C380.171 603.113 380.113 603.427 379.996 603.734C379.883 604.038 379.684 604.377 379.4 604.752C379.118 605.124 378.728 605.579 378.228 606.116L376.267 608.212V608.281H380.324V609.218H374.819ZM384.982 609.337C384.624 609.332 384.266 609.264 383.908 609.133C383.55 609.002 383.223 608.782 382.928 608.472C382.633 608.16 382.395 607.738 382.216 607.207C382.037 606.673 381.948 606.002 381.948 605.195C381.948 604.423 382.02 603.738 382.165 603.141C382.31 602.542 382.52 602.038 382.796 601.629C383.071 601.217 383.404 600.904 383.793 600.691C384.185 600.478 384.627 600.372 385.118 600.372C385.607 600.372 386.042 600.47 386.422 600.666C386.806 600.859 387.118 601.129 387.36 601.475C387.601 601.822 387.758 602.221 387.829 602.673H386.789C386.692 602.281 386.505 601.955 386.226 601.697C385.948 601.438 385.579 601.309 385.118 601.309C384.442 601.309 383.91 601.603 383.52 602.191C383.134 602.779 382.939 603.605 382.936 604.667H383.005C383.164 604.426 383.353 604.22 383.571 604.049C383.793 603.876 384.037 603.742 384.304 603.649C384.571 603.555 384.854 603.508 385.152 603.508C385.652 603.508 386.11 603.633 386.525 603.883C386.939 604.13 387.272 604.472 387.522 604.91C387.772 605.345 387.897 605.843 387.897 606.406C387.897 606.945 387.776 607.44 387.535 607.889C387.293 608.335 386.954 608.69 386.516 608.954C386.081 609.215 385.57 609.343 384.982 609.337ZM384.982 608.4C385.34 608.4 385.661 608.31 385.945 608.131C386.232 607.953 386.458 607.712 386.623 607.411C386.79 607.11 386.874 606.775 386.874 606.406C386.874 606.045 386.793 605.717 386.631 605.421C386.472 605.123 386.252 604.886 385.971 604.71C385.692 604.533 385.374 604.445 385.016 604.445C384.746 604.445 384.495 604.499 384.262 604.607C384.029 604.712 383.824 604.857 383.648 605.042C383.475 605.227 383.338 605.438 383.239 605.677C383.14 605.913 383.09 606.161 383.09 606.423C383.09 606.769 383.171 607.093 383.333 607.394C383.498 607.695 383.722 607.938 384.006 608.123C384.293 608.308 384.618 608.4 384.982 608.4Z" fill="white"/>
<path d="M415.609 542H413.414V598.241H415.609V542Z" fill="white"/>
<path d="M420 542H417.805V598.241H420V542Z" fill="white"/>
<defs>
<radialGradient id="paint0_radial_4015_208" cx="0" cy="0" r="1" gradientUnits="userSpaceOnUse" gradientTransform="translate(302 32.0001) rotate(90) scale(83.5 150)">
<stop stop-color="#24A0B5" stop-opacity="0.5"/>
<stop offset="1" stop-color="#24A0B5" stop-opacity="0"/>
</radialGradient>
<radialGradient id="paint1_radial_4015_208" cx="0" cy="0" r="1" gradientUnits="userSpaceOnUse" gradientTransform="translate(302 651.5) rotate(-90) scale(217 150)">
<stop stop-color="#24A0B5" stop-opacity="0.5"/>
<stop offset="1" stop-color="#24A0B5" stop-opacity="0"/>
</radialGradient>
<clipPath id="clip0_4015_208">
<rect width="300" height="600" fill="white" transform="translate(152 32.0001)"/>
</clipPath>
</defs>
</svg>
